<svg xmlns="http://www.w3.org/2000/svg" xmlns:xlink="http://www.w3.org/1999/xlink" version="1.1" x="0px" y="0px" viewBox="0 0 1024 1280" style="enable-background:new 0 0 1024 1024;" xml:space="preserve"><g><polygon points="512,40.4 443,177.8 290.9,199.1 401.5,304.2 369,454.3 512,377.5 655,454.3 622.6,304.2    733.1,199.1 581,177.8  "/><g><path d="M503.4,35.3c-20.1,40.1-40.3,80.2-60.4,120.3c-2.9,5.7-5.7,11.4-8.6,17.1c2-1.5,4-3.1,6-4.6    c-44.4,6.2-88.8,12.5-133.1,18.7c-6.3,0.9-12.6,1.8-19,2.7c-7.6,1.1-9.4,12-4.4,16.7c32.3,30.7,64.7,61.5,97,92.2    c4.5,4.3,9,8.6,13.5,12.8c-0.9-3.2-1.7-6.5-2.6-9.7c-9.5,43.8-18.9,87.6-28.4,131.4c-1.3,6.2-2.7,12.5-4,18.7    c-1.9,8.6,6.8,15.5,14.7,11.3c41.7-22.4,83.4-44.8,125.1-67.2c6-3.2,11.9-6.4,17.9-9.6c-3.4,0-6.7,0-10.1,0    c41.7,22.4,83.4,44.8,125.1,67.2c6,3.2,11.9,6.4,17.9,9.6c7.9,4.2,16.5-2.7,14.7-11.3c-9.5-43.8-18.9-87.6-28.4-131.4    c-1.3-6.2-2.7-12.5-4-18.7c-0.9,3.2-1.7,6.5-2.6,9.7c32.3-30.7,64.7-61.5,97-92.2c4.5-4.3,9-8.6,13.5-12.8    c5-4.7,3.2-15.6-4.4-16.7c-44.4-6.2-88.8-12.5-133.1-18.7c-6.3-0.9-12.6-1.8-19-2.7c2,1.5,4,3.1,6,4.6    c-20.1-40.1-40.3-80.2-60.4-120.3c-2.9-5.7-5.7-11.4-8.6-17.1c-5.8-11.5-23-1.4-17.3,10.1c20.3,40.5,40.7,81,61,121.5    c2.6,5.2,4.9,10.8,7.9,15.8c3.6,5.8,11.1,5.4,17,6.3c26.1,3.7,52.2,7.3,78.3,11c20.9,2.9,41.9,5.9,62.8,8.8    c-1.5-5.6-2.9-11.1-4.4-16.7c-32.7,31.1-65.3,62.1-98,93.2c-4.1,3.9-8.6,7.7-12.5,11.9c-5.1,5.6-1.6,14.6-0.2,21.2    c5.5,25.6,11.1,51.2,16.6,76.8c4.5,20.7,8.9,41.3,13.4,62c4.9-3.8,9.8-7.5,14.7-11.3c-42.1-22.6-84.2-45.2-126.3-67.8    c-5.5-3-11-6.2-16.6-8.9c-7.1-3.5-14.3,2.1-20.5,5.5c-24.5,13.2-49,26.3-73.5,39.5c-19.7,10.6-39.5,21.2-59.2,31.8    c4.9,3.8,9.8,7.5,14.7,11.3c9.5-44,19-88,28.5-132c1.3-5.9,2.8-11.9,3.9-17.9c1.5-8.1-5.1-12.4-10.3-17.2    c-18.9-17.9-37.7-35.8-56.6-53.8c-15.4-14.7-30.8-29.3-46.3-44c-1.5,5.6-2.9,11.1-4.4,16.7c44.8-6.3,89.7-12.6,134.5-18.9    c5.7-0.8,11.9-1,17.5-2.5c6.2-1.6,8.5-9.5,11.1-14.5c11.8-23.6,23.7-47.2,35.5-70.8c9.5-18.9,19-37.8,28.5-56.7    C526.4,34,509.2,23.8,503.4,35.3z"/></g></g><g><path d="M660.5,559.2v424.4h-297V559.2c0-19.7,15.9-35.6,35.6-35.6h225.8C644.6,523.6,660.5,539.5,660.5,559.2z"/><g><path d="M650.5,559.2c0,14.1,0,28.2,0,42.3c0,33.8,0,67.7,0,101.5c0,40.8,0,81.5,0,122.3c0,35.3,0,70.5,0,105.8    c0,11.7,0,23.4,0,35.2c0,5.5-0.5,11.1,0,16.6c0,0.2,0,0.5,0,0.7c3.3-3.3,6.7-6.7,10-10c-33.4,0-66.9,0-100.3,0    c-53.3,0-106.6,0-159.9,0c-12.2,0-24.5,0-36.7,0c3.3,3.3,6.7,6.7,10,10c0-9.8,0-19.6,0-29.4c0-24.6,0-49.1,0-73.7    c0-32.5,0-65.1,0-97.6c0-33.2,0-66.3,0-99.5c0-27.1,0-54.2,0-81.3c0-13.8,0-27.5,0-41.3c0-11.1,5.5-21.3,16.2-25.5    c6-2.4,12.9-1.7,19.3-1.7c26.4,0,52.7,0,79.1,0c32.1,0,64.2,0,96.3,0c10.6,0,21.2,0,31.8,0c7,0,14.1-0.6,20.5,2.9    C645.2,541,650.3,549.5,650.5,559.2c0.2,12.9,20.2,12.9,20,0C670,534,650,514,624.8,513.6c-5.5-0.1-11.1,0-16.6,0    c-29.4,0-58.8,0-88.2,0c-31.3,0-62.7,0-94,0c-8.1,0-16.3,0-24.4,0c-16.9,0-32.5,7.3-41.5,22c-8.3,13.7-6.6,30.3-6.6,45.6    c0,23.7,0,47.5,0,71.2c0,32.7,0,65.3,0,98c0,34.2,0,68.3,0,102.5c0,28.3,0,56.6,0,84.9c0,14.6-0.2,29.2,0,43.8c0,0.7,0,1.3,0,2    c0,5.4,4.6,10,10,10c33.4,0,66.9,0,100.3,0c53.3,0,106.6,0,159.9,0c12.2,0,24.5,0,36.7,0c5.4,0,10-4.6,10-10c0-14.1,0-28.2,0-42.3    c0-33.8,0-67.7,0-101.5c0-40.8,0-81.5,0-122.3c0-35.3,0-70.5,0-105.8c0-17.2,0.6-34.6,0-51.7c0-0.2,0-0.5,0-0.7    C670.5,546.3,650.5,546.3,650.5,559.2z"/></g></g><g><path d="M120.1,662.6h183.4v321h-219V698.2C84.5,678.5,100.4,662.6,120.1,662.6z"/><g><path d="M120.1,672.6c20.6,0,41.2,0,61.8,0c32.9,0,65.8,0,98.7,0c7.6,0,15.3,0,22.9,0c-3.3-3.3-6.7-6.7-10-10    c0,36.1,0,72.3,0,108.4c0,57.6,0,115.2,0,172.8c0,13.2,0,26.5,0,39.7c3.3-3.3,6.7-6.7,10-10c-24.7,0-49.4,0-74.1,0    c-39.2,0-78.4,0-117.7,0c-9.1,0-18.1,0-27.2,0c3.3,3.3,6.7,6.7,10,10c0-36.8,0-73.7,0-110.5c0-52.2,0-104.5,0-156.7    c0-5.7,0-11.4,0-17.2C94.6,684.7,105.3,672.9,120.1,672.6c12.9-0.2,12.9-20.2,0-20c-24.5,0.5-44.6,19.6-45.6,44.2    c-0.1,3.4,0,6.8,0,10.2c0,20.3,0,40.6,0,60.8c0,57.6,0,115.3,0,172.9c0,14.3,0,28.6,0,42.9c0,5.4,4.6,10,10,10    c24.7,0,49.4,0,74.1,0c39.2,0,78.4,0,117.7,0c9.1,0,18.1,0,27.2,0c5.4,0,10-4.6,10-10c0-36.1,0-72.3,0-108.4    c0-57.6,0-115.2,0-172.8c0-13.2,0-26.5,0-39.7c0-5.4-4.6-10-10-10c-20.6,0-41.2,0-61.8,0c-32.9,0-65.8,0-98.7,0    c-7.6,0-15.3,0-22.9,0C107.2,652.6,107.2,672.6,120.1,672.6z"/></g></g><g><path d="M939.5,698.2v285.4h-219v-321h183.4C923.6,662.6,939.5,678.5,939.5,698.2z"/><g><path d="M929.5,698.2c0,32.3,0,64.7,0,97c0,51.1,0,102.2,0,153.3c0,11.7,0,23.4,0,35.1c3.3-3.3,6.7-6.7,10-10    c-24.7,0-49.4,0-74.1,0c-39.2,0-78.4,0-117.7,0c-9.1,0-18.1,0-27.2,0c3.3,3.3,6.7,6.7,10,10c0-36.1,0-72.3,0-108.4    c0-57.6,0-115.2,0-172.8c0-13.2,0-26.5,0-39.7c-3.3,3.3-6.7,6.7-10,10c25.3,0,50.6,0,75.8,0c33.5,0,67,0,100.5,0    c3,0,6.1-0.1,9.1,0.1C919.3,673.6,929.2,685.1,929.5,698.2c0.2,12.9,20.2,12.9,20,0c-0.5-26.1-21.4-45.5-47.2-45.6    c-11.5,0-23,0-34.5,0c-39.1,0-78.1,0-117.2,0c-10.1,0-20.1,0-30.2,0c-5.4,0-10,4.6-10,10c0,36.1,0,72.3,0,108.4    c0,57.6,0,115.2,0,172.8c0,13.2,0,26.5,0,39.7c0,5.4,4.6,10,10,10c24.7,0,49.4,0,74.1,0c39.2,0,78.4,0,117.7,0    c9.1,0,18.1,0,27.2,0c5.4,0,10-4.6,10-10c0-32.3,0-64.7,0-97c0-51.1,0-102.2,0-153.3c0-11.7,0-23.4,0-35.1    C949.5,685.3,929.5,685.3,929.5,698.2z"/></g></g><text x="0" y="1039" fill="#000000" font-size="5px" font-weight="bold" font-family="'Helvetica Neue', Helvetica, Arial-Unicode, Arial, Sans-serif">Created by shashank singh</text><text x="0" y="1044" fill="#000000" font-size="5px" font-weight="bold" font-family="'Helvetica Neue', Helvetica, Arial-Unicode, Arial, Sans-serif">from the Noun Project</text></svg>